<svg width="36" height="36" viewBox="0 0 36 36" fill="none" xmlns="http://www.w3.org/2000/svg">
<path fill-rule="evenodd" clip-rule="evenodd" d="M18.0149 0.258057C8.05312 0.258057 0 8.37055 0 18.4068C0 26.4293 5.15991 33.2202 12.3181 35.6237C13.213 35.8044 13.5409 35.2332 13.5409 34.7527C13.5409 34.332 13.5114 32.8898 13.5114 31.3872C8.50005 32.4691 7.45649 29.2237 7.45649 29.2237C6.65114 27.1204 5.45786 26.5798 5.45786 26.5798C3.81766 25.468 5.57734 25.468 5.57734 25.468C7.39675 25.5882 8.35144 27.3309 8.35144 27.3309C9.96177 30.0951 12.5567 29.3141 13.6006 28.8332C13.7496 27.6613 14.2271 26.8501 14.7341 26.3995C10.7373 25.9787 6.53203 24.4163 6.53203 17.4451C6.53203 15.462 7.24741 13.8395 8.38094 12.5776C8.2021 12.127 7.57559 10.2637 8.56015 7.76986C8.56015 7.76986 10.0812 7.28901 13.511 9.63278C14.9794 9.23551 16.4937 9.03342 18.0149 9.03172C19.536 9.03172 21.0866 9.24227 22.5184 9.63278C25.9485 7.28901 27.4696 7.76986 27.4696 7.76986C28.4542 10.2637 27.8273 12.127 27.6485 12.5776C28.8119 13.8395 29.4978 15.462 29.4978 17.4451C29.4978 24.4163 25.2925 25.9485 21.2658 26.3995C21.9222 26.9703 22.4886 28.0518 22.4886 29.7647C22.4886 32.1984 22.4591 34.1517 22.4591 34.7524C22.4591 35.2332 22.7873 35.8044 23.6818 35.6241C30.84 33.2198 35.9999 26.4293 35.9999 18.4068C36.0294 8.37055 27.9468 0.258057 18.0149 0.258057Z" fill="#24292F"/>
</svg>
