<svg width="36" height="37" viewBox="0 0 36 37" fill="none" xmlns="http://www.w3.org/2000/svg">
<path d="M33.3425 0.258057H2.6575C1.95269 0.258057 1.27674 0.538043 0.778364 1.03642C0.279986 1.5348 0 2.21074 0 2.91556V33.6006C0 34.3054 0.279986 34.9813 0.778364 35.4797C1.27674 35.9781 1.95269 36.2581 2.6575 36.2581H33.3425C34.0473 36.2581 34.7233 35.9781 35.2216 35.4797C35.72 34.9813 36 34.3054 36 33.6006V2.91556C36 2.21074 35.72 1.5348 35.2216 1.03642C34.7233 0.538043 34.0473 0.258057 33.3425 0.258057ZM10.73 30.9256H5.3175V13.7331H10.73V30.9256ZM8.02 11.3506C7.40605 11.3471 6.80687 11.1619 6.2981 10.8182C5.78933 10.4745 5.39376 9.98785 5.16132 9.41959C4.92887 8.85133 4.86997 8.22694 4.99205 7.62524C5.11412 7.02353 5.4117 6.47147 5.84723 6.03873C6.28276 5.60599 6.83672 5.31196 7.4392 5.19375C8.04168 5.07554 8.66567 5.13845 9.23243 5.37453C9.79919 5.61062 10.2833 6.00931 10.6237 6.52028C10.9641 7.03124 11.1455 7.63159 11.145 8.24556C11.1508 8.65661 11.0738 9.06462 10.9185 9.44526C10.7633 9.82591 10.533 10.1714 10.2414 10.4612C9.94974 10.7509 9.60277 10.979 9.22114 11.1318C8.8395 11.2846 8.431 11.359 8.02 11.3506ZM30.68 30.9406H25.27V21.5481C25.27 18.7781 24.0925 17.9231 22.5725 17.9231C20.9675 17.9231 19.3925 19.1331 19.3925 21.6181V30.9406H13.98V13.7456H19.185V16.1281H19.255C19.7775 15.0706 21.6075 13.2631 24.4 13.2631C27.42 13.2631 30.6825 15.0556 30.6825 20.3056L30.68 30.9406Z" fill="#0A66C2"/>
</svg>
